<svg width="28" height="28" viewBox="0 0 28 28" fill="none" xmlns="http://www.w3.org/2000/svg">
<path d="M11.0008 15C11.0008 16.1046 10.1054 17 9.00085 17C7.89628 17 7.00085 16.1046 7.00085 15C7.00085 13.8954 7.89628 13 9.00085 13C10.1054 13 11.0008 13.8954 11.0008 15Z" fill="black"/>
<path d="M20.0008 15C20.0008 16.1046 19.1054 17 18.0008 17C16.8963 17 16.0008 16.1046 16.0008 15C16.0008 13.8954 16.8963 13 18.0008 13C19.1054 13 20.0008 13.8954 20.0008 15Z" fill="black"/>
<path fill-rule="evenodd" clip-rule="evenodd" d="M7.88943 6.94872C7.88943 4.19535 10.1642 2 12.9244 2H14.0773C16.8375 2 19.1123 4.19535 19.1123 6.94872V8.76923H24.8615C26.1344 8.76923 27.1933 9.88499 26.9724 11.2115C26.6139 13.363 26.0074 16.4913 25.1925 19.2645C24.7832 20.6543 24.301 22.0102 23.7762 23.0946C23.2588 24.1603 22.6098 25.1634 21.773 25.7057C21.4601 25.8882 21.0054 25.9948 20.7241 26H6.27755C5.99628 25.9948 5.54158 25.8882 5.22868 25.7057C4.39188 25.1634 3.7429 24.1603 3.22549 23.0946C2.70074 22.0102 2.21854 20.6543 1.8092 19.2645C0.994349 16.4913 0.387834 13.363 0.0293414 11.2115C-0.19164 9.885 0.867256 8.76923 2.14018 8.76923H7.88943V6.94872ZM7.88943 10.7692V13.7179H9.88943V10.7692H17.1123V13.7179H19.1123V10.7692H24.8615C24.9172 10.7692 24.9559 10.7917 24.9786 10.8174C24.9997 10.8413 25.0032 10.8612 24.9995 10.8829C24.6455 13.0086 24.064 16.0185 23.2738 18.6999C22.8807 20.0375 22.4561 21.238 21.977 22.2211C21.509 23.1851 21.073 23.7543 20.7257 24L20.7241 24H6.27755L6.27603 24C5.92871 23.7543 5.4927 23.1851 5.02465 22.2211C4.54563 21.238 4.12104 20.0375 3.72786 18.6999C2.93765 16.0185 2.35619 13.0086 2.00215 10.8829C1.99855 10.8612 2.00201 10.8413 2.02312 10.8174C2.04583 10.7917 2.08452 10.7692 2.14018 10.7692H7.88943ZM17.1123 8.76923H9.88943V6.94872C9.88943 5.34045 11.2278 4 12.9244 4H14.0773C15.7739 4 17.1123 5.34045 17.1123 6.94872V8.76923Z" fill="black"/>
</svg>
