<svg width="28" height="28" viewBox="0 0 28 28" fill="none" xmlns="http://www.w3.org/2000/svg">
<path fill-rule="evenodd" clip-rule="evenodd" d="M9.05317 9.5049C9.05317 7.037 11.3263 5 14.1343 5C16.9201 5 19.1932 7.037 19.2155 9.5049V10.9151H19.4607C20.8647 10.9151 22.0013 11.914 22.0013 13.148V20.7671C22.0013 22.0011 20.8647 23 19.4607 23H8.54059C7.13658 23 6 22.0011 6 20.7671V13.148C6 11.914 7.13658 10.9151 8.54059 10.9151H9.05317V9.5049ZM14.1121 5.90098C11.8835 5.90098 10.056 7.52666 10.056 9.5049V10.9151H18.1904V9.5049C18.1904 7.52666 16.3407 5.90098 14.1121 5.90098ZM20.9761 13.1284C20.9761 12.4037 20.3075 11.7965 19.4607 11.7965V11.8161H8.54059C7.71601 11.8161 7.02515 12.4037 7.02515 13.148V20.7476C7.02515 21.4723 7.69373 22.0794 8.54059 22.0794H19.4607C20.2853 22.0794 20.9761 21.4918 20.9761 20.7476V13.1284ZM14.5116 18.4951C14.5116 18.7497 14.2887 18.9456 13.999 18.9456C13.7093 18.9456 13.4864 18.7301 13.4864 18.4951V17.1632C13.4864 16.9086 13.7093 16.7127 13.999 16.7127C14.2887 16.7127 14.5116 16.9086 14.5116 17.1632V18.4951Z" fill="black"/>
</svg>
